<?xml version="1.0" encoding="UTF-8"?>
<svg xmlns="http://www.w3.org/2000/svg" viewBox="0 0 5502 2352" preserveAspectRatio="xMidYMid meet">
  <g transform="translate(120, 1581) scale(1, -1)">
  <path transform="translate(0, 0)" d="M908.2239895313978 1298.889634873718 762.6904975064099 1332.0449069552124 884.3350775875151 1421.3786295577884H906.0686672665179L972.9578857459128 966.533464897424L928.3577365502715 957.6445014104247L740.1790608763695 1274.4226643890142L790.5798895992339 1212.3773681633174Q734.8463365361094 1255.6665961407125 674.6127692349255 1276.5223341230303Q614.3792019337416 1297.378072105348 546.9346516951919 1297.378072105348Q419.4458794519305 1297.378072105348 354.62396647408605 1239.9338453523815Q289.80205349624157 1182.4896185994148 289.80205349624157 1087.5566663965583Q289.80205349624157 1023.3568535707891 318.1465291362256 979.5125474724919Q346.4910047762096 935.6682413741946 395.5799336768687 905.1572177466005Q444.66886257752776 874.6461941190064 506.94668714888394 851.3573459200561Q569.2245117202401 828.0684977211058 637.246773276478 804.0462809242308Q705.269034832716 780.0240641273558 772.4913085959852 750.1573411729187Q839.7135823592544 720.2906182184815 895.2136271186173 676.023839654401Q950.7136718779802 631.7570610903203 984.2581427711993 565.0124688055366Q1017.8026136644185 498.2678765207529 1017.8026136644185 400.88989936187863Q1017.8026136644185 266.1117662228644 951.5023145917803 171.73373141884804Q885.2020155191422 77.35569661483169 770.8793646935374 27.58889702707529Q656.5567138679326 -22.177902560681105 510.5563245974481 -22.177902560681105Q409.9783189557493 -22.177902560681105 330.75586208701134 -8.666800944134593Q251.5334052182734 4.844300672411919 165.84424370527267 38.533219400793314L79.51095784455538 404.20084092766047H132.62196587398648L389.8452948629856 34.955348037183285L209.19992540031672 150.24483235552907Q289.28892550989985 106.75589599460363 352.8890346959233 85.95587022416294Q416.4891438819468 65.15584445372224 488.2003377303481 65.15584445372224Q599.9559502527118 65.15584445372224 677.0113776344806 94.2336025647819Q754.0668050162494 123.31136067584157 794.1222181562334 180.57790120318532Q834.1776312962174 237.84444173052907 834.1776312962174 322.2441324852407Q834.1776312962174 398.4662244990468 799.2220642119646 448.71057128719985Q764.2664971277118 498.9549180753529 706.8109307214618 532.043747285381Q649.3553643152118 565.132576495409 581.1331203915179 589.3992085754871Q512.910876467824 613.6658406555653 446.35530599206686 638.7102742493153Q379.79973551630974 663.7547078430653 320.9218987375498 693.7102891691029Q262.0440619587898 723.6658704951406 216.9773281533271 765.0326151512563Q171.9105943478644 806.3993598073721 146.2994344085455 865.2994981538504Q120.6882744692266 924.1996365003288 120.6882744692266 1006.799839951098Q120.6882744692266 1121.9778781458735 176.3885070811957 1205.9447502978146Q232.08873969316483 1289.9116224497557 334.7669223379344 1336.0450676809996Q437.4451049827039 1382.1785129122436 576.890079755336 1382.1785129122436Q669.4235880561173 1382.1785129122436 748.0792514402419 1362.3451931420714Q826.7349148243666 1342.5118733718991 908.2239895313978 1298.889634873718Z" fill="#020D4A"/>
  <path transform="translate(1108, 0)" d="M528.7564371749759 54.97787543386221Q600.4227322041988 54.97787543386221 654.1112352143973 93.41119588166475Q707.7997382245958 131.8445163294673 737.5994764510542 212.90012817271054Q767.3992146775126 293.9557400159538 767.3992146775126 421.17818332090974Q767.3992146775126 557.7562622055411 738.121700707823 650.5231079086661Q708.8441867381334 743.2899536117911 654.2890075668693 790.8011461030692Q599.7338283956051 838.3123385943472 522.7119588218629 838.3123385943472Q451.2012274861336 838.3123385943472 397.4571668859571 799.8790181465447Q343.71310628578067 761.4456976987422 313.8911438025534 680.4123101122677Q284.06918131932616 599.3789225257933 284.06918131932616 472.15647922083735Q284.06918131932616 336.3783881291747 313.26891344226897 243.1893242727965Q342.4686455652118 150.0002604164183 397.4127102345228 102.48906792514026Q452.35677490383387 54.97787543386221 528.7564371749759 54.97787543386221ZM521.0674126520753 -22.0001220703125Q387.4670111760497 -22.0001220703125 285.4334418401122 36.43330417200923Q183.3998725041747 94.86673041433096 126.27754245325923 198.80024142749608Q69.15521240234375 302.7337524406612 69.15521240234375 438.02289225161076Q69.15521240234375 577.0676011815667 129.39981079101562 684.8344401028007Q189.6444091796875 792.6012790240347 293.78915337473154 853.9680318180472Q397.9338975697756 915.3347846120596 530.4009833447635 915.3347846120596Q665.4458428286016 915.3347846120596 767.0016364213079 856.9235826265067Q868.5574300140142 798.5123806409538 925.4575310610235 695.034421114251Q982.3576321080327 591.5564615875483 982.3576321080327 455.31177029013634Q982.3576321080327 316.422625053674 921.8685804586858 208.55578002892435Q861.3795288093388 100.68893500417471 757.1681186258793 39.344406466931105Q652.9567084424198 -22.0001220703125 521.0674126520753 -22.0001220703125Z" fill="#020D4A"/>
  <path transform="translate(2160, 0)" d="M368.557813860476 81.13328586146235 510.7348795607686 35.822219509631395V0H31.088879395276308V35.822219509631395L171.39932318776846 81.13328586146235V1219.8438164554536Q157.77706841379404 1235.0216118656099 136.39928385429084 1250.688310407102Q115.02149929478765 1266.3550089485943 85.04373236745596 1283.2106241844594Q55.06596544012427 1300.0662394203246 16.065965440124273 1317.7996921129525V1343.777818467468L357.77992621809244 1435.4450073242188H378.2022881433368L368.557813860476 1257.4662801139057Z" fill="#020D4A"/>
  <path transform="translate(2701, 0)" d="M920.8917616121471 815.8680447041988 580.113496914506 -17.066438801586628H496.7110378667712L110.37725422903895 806.3347222208977L-11.755902778357267 852.3791707344353V893.3346625417471H452.78028293326497V851.9346978068352L325.58057183399796 812.3570298925042L619.3140814900398 171.55560167133808L583.2019680514932 169.31097004935145L830.4468587301672 816.0902886278927L704.0693996921182 851.9346978068352V893.3346625417471H1027.6249810121953V851.9346978068352Z" fill="#020D4A"/>
  <path transform="translate(3749, 0)" d="M528.7564371749759 54.97787543386221Q600.4227322041988 54.97787543386221 654.1112352143973 93.41119588166475Q707.7997382245958 131.8445163294673 737.5994764510542 212.90012817271054Q767.3992146775126 293.9557400159538 767.3992146775126 421.17818332090974Q767.3992146775126 557.7562622055411 738.121700707823 650.5231079086661Q708.8441867381334 743.2899536117911 654.2890075668693 790.8011461030692Q599.7338283956051 838.3123385943472 522.7119588218629 838.3123385943472Q451.2012274861336 838.3123385943472 397.4571668859571 799.8790181465447Q343.71310628578067 761.4456976987422 313.8911438025534 680.4123101122677Q284.06918131932616 599.3789225257933 284.06918131932616 472.15647922083735Q284.06918131932616 336.3783881291747 313.26891344226897 243.1893242727965Q342.4686455652118 150.0002604164183 397.4127102345228 102.48906792514026Q452.35677490383387 54.97787543386221 528.7564371749759 54.97787543386221ZM521.0674126520753 -22.0001220703125Q387.4670111760497 -22.0001220703125 285.4334418401122 36.43330417200923Q183.3998725041747 94.86673041433096 126.27754245325923 198.80024142749608Q69.15521240234375 302.7337524406612 69.15521240234375 438.02289225161076Q69.15521240234375 577.0676011815667 129.39981079101562 684.8344401028007Q189.6444091796875 792.6012790240347 293.78915337473154 853.9680318180472Q397.9338975697756 915.3347846120596 530.4009833447635 915.3347846120596Q665.4458428286016 915.3347846120596 767.0016364213079 856.9235826265067Q868.5574300140142 798.5123806409538 925.4575310610235 695.034421114251Q982.3576321080327 591.5564615875483 982.3576321080327 455.31177029013634Q982.3576321080327 316.422625053674 921.8685804586858 208.55578002892435Q861.3795288093388 100.68893500417471 757.1681186258793 39.344406466931105Q652.9567084424198 -22.0001220703125 521.0674126520753 -22.0001220703125Z" fill="#020D4A"/>
  <path transform="translate(4801, 0)" d="M230.72650350009403 257.31292317807674Q291.823238119483 257.31292317807674 331.09019029513 217.56819525919855Q370.35714247077703 177.82346734032035 370.35714247077703 120.26952853798866Q370.35714247077703 63.40041910856962 331.0458729504204 23.25569729320705Q291.7346034300637 -16.889024522155523 230.62652185768147 -16.889024522155523Q170.35568033903837 -16.889024522155523 130.68873426690698 23.25569729320705Q91.02178819477558 63.40041910856962 91.02178819477558 120.26952853798866Q91.02178819477558 177.82346734032035 130.74429151788354 217.56819525919855Q170.4667948409915 257.31292317807674 230.72650350009403 257.31292317807674Z" fill="#C9933C"/>
  </g>
</svg>
