<?xml version="1.0" encoding="UTF-8"?>
<svg xmlns="http://www.w3.org/2000/svg" viewBox="0 0 2876 2876" preserveAspectRatio="xMidYMid meet">
  <circle cx="1438.0" cy="1438.0" r="1438.0" fill="#020D4A"/>
  <g transform="translate(653.5, 2108.0) scale(1, -1)">
  <path transform="translate(0, 0)" d="M908.2239895313978 1298.889634873718 762.6904975064099 1332.0449069552124 884.3350775875151 1421.3786295577884H906.0686672665179L972.9578857459128 966.533464897424L928.3577365502715 957.6445014104247L740.1790608763695 1274.4226643890142L790.5798895992339 1212.3773681633174Q734.8463365361094 1255.6665961407125 674.6127692349255 1276.5223341230303Q614.3792019337416 1297.378072105348 546.9346516951919 1297.378072105348Q419.4458794519305 1297.378072105348 354.62396647408605 1239.9338453523815Q289.80205349624157 1182.4896185994148 289.80205349624157 1087.5566663965583Q289.80205349624157 1023.3568535707891 318.1465291362256 979.5125474724919Q346.4910047762096 935.6682413741946 395.5799336768687 905.1572177466005Q444.66886257752776 874.6461941190064 506.94668714888394 851.3573459200561Q569.2245117202401 828.0684977211058 637.246773276478 804.0462809242308Q705.269034832716 780.0240641273558 772.4913085959852 750.1573411729187Q839.7135823592544 720.2906182184815 895.2136271186173 676.023839654401Q950.7136718779802 631.7570610903203 984.2581427711993 565.0124688055366Q1017.8026136644185 498.2678765207529 1017.8026136644185 400.88989936187863Q1017.8026136644185 266.1117662228644 951.5023145917803 171.73373141884804Q885.2020155191422 77.35569661483169 770.8793646935374 27.58889702707529Q656.5567138679326 -22.177902560681105 510.5563245974481 -22.177902560681105Q409.9783189557493 -22.177902560681105 330.75586208701134 -8.666800944134593Q251.5334052182734 4.844300672411919 165.84424370527267 38.533219400793314L79.51095784455538 404.20084092766047H132.62196587398648L389.8452948629856 34.955348037183285L209.19992540031672 150.24483235552907Q289.28892550989985 106.75589599460363 352.8890346959233 85.95587022416294Q416.4891438819468 65.15584445372224 488.2003377303481 65.15584445372224Q599.9559502527118 65.15584445372224 677.0113776344806 94.2336025647819Q754.0668050162494 123.31136067584157 794.1222181562334 180.57790120318532Q834.1776312962174 237.84444173052907 834.1776312962174 322.2441324852407Q834.1776312962174 398.4662244990468 799.2220642119646 448.71057128719985Q764.2664971277118 498.9549180753529 706.8109307214618 532.043747285381Q649.3553643152118 565.132576495409 581.1331203915179 589.3992085754871Q512.910876467824 613.6658406555653 446.35530599206686 638.7102742493153Q379.79973551630974 663.7547078430653 320.9218987375498 693.7102891691029Q262.0440619587898 723.6658704951406 216.9773281533271 765.0326151512563Q171.9105943478644 806.3993598073721 146.2994344085455 865.2994981538504Q120.6882744692266 924.1996365003288 120.6882744692266 1006.799839951098Q120.6882744692266 1121.9778781458735 176.3885070811957 1205.9447502978146Q232.08873969316483 1289.9116224497557 334.7669223379344 1336.0450676809996Q437.4451049827039 1382.1785129122436 576.890079755336 1382.1785129122436Q669.4235880561173 1382.1785129122436 748.0792514402419 1362.3451931420714Q826.7349148243666 1342.5118733718991 908.2239895313978 1298.889634873718Z" fill="#FAF8F4"/>
  <path transform="translate(1108, 0)" d="M230.72650350009403 257.31292317807674Q291.823238119483 257.31292317807674 331.09019029513 217.56819525919855Q370.35714247077703 177.82346734032035 370.35714247077703 120.26952853798866Q370.35714247077703 63.40041910856962 331.0458729504204 23.25569729320705Q291.7346034300637 -16.889024522155523 230.62652185768147 -16.889024522155523Q170.35568033903837 -16.889024522155523 130.68873426690698 23.25569729320705Q91.02178819477558 63.40041910856962 91.02178819477558 120.26952853798866Q91.02178819477558 177.82346734032035 130.74429151788354 217.56819525919855Q170.4667948409915 257.31292317807674 230.72650350009403 257.31292317807674Z" fill="#C9933C"/>
  </g>
</svg>
